<svg xmlns="http://www.w3.org/2000/svg" width="62" height="37" viewBox="0 0 62 37"><path fill-rule="evenodd" d="M46.05 23.16a53.523 53.523 0 0 1-3.21-.13c-1.736-.12-1.83-1.103-1.77-1.58.02-.16.056-.26.056-.26.042-.825.988-1.47 2.246-1.966.816-.322 1.76-.58 2.68-.786 2.053-.457 3.97-.642 3.97-.642a3.94 3.94 0 0 1 .22-.006c2.622 0 3.448 2.726 2.57 4.03-.62.927-3.016 1.347-6.358 1.347-.128 0-.27-.007-.403-.008M9.5 14.1s2.935-6.64 3.426-8.063c.81-2.35 3.018-2.49 3.018-2.49s7.75-.516 15.06-.525c2.605.003 5.26.07 7.608.157a341.8 341.8 0 0 1 2.964.123 251.8 251.8 0 0 1 4.477.245c.01 0 1.27.08 2.235 1.132.288.313.546.716.74 1.225.018.045.038.085.054.132l2.64 6.272a327.592 327.592 0 0 0 .784 1.79s.105.318.08.713c-.012.188-.05.393-.148.592a358.936 358.936 0 0 0-6.385-.36c-2.097-.097-4.25-.175-6.532-.232-2.568-.065-5.248-.585-8.273-.592H30.905l-1.24.005c-.456.002-.906.006-1.35.01-7.202.06-12.87.787-18.748 1.17-.304-.616-.07-1.306-.07-1.306zm9.666 8.93c-1.29.088-2.506.135-3.616.135-3.343 0-5.736-.42-6.358-1.347-.877-1.304-.05-4.03 2.57-4.03.073 0 .146.002.22.006 0 0 8.766.844 8.897 3.393 0 0 .59 1.68-1.713 1.84m41.984-8.574c.224-.325.32-.664.34-1.014a2.89 2.89 0 0 0-.004-.404 5.96 5.96 0 0 0-.123-.858c-.165-.666-.552-.97-1.8-.97-.476 0-1.077.043-1.84.127-.663.074-1.302.17-1.68.884-.027.05-.055.093-.078.148 0 0-.143.693-.927.985-.02-.06-.203-.477-.48-1.108-.745-1.703-2.174-4.975-2.76-6.47a15.46 15.46 0 0 1-.198-.523 6.78 6.78 0 0 0-.3-.718 6.24 6.24 0 0 0-.77-1.23c-1.312-1.62-3.174-2.202-4.29-2.272l-.186-.012a274.076 274.076 0 0 0-5.523-.287 238.715 238.715 0 0 0-9.336-.23L31 .5h-.19c-7.25.02-14.925.525-15.044.532-1.483.094-4.28 1.088-5.36 4.22-.483 1.4-3.39 7.963-3.427 8.066-.796-.257-.94-.95-.94-.95-.364-.856-1.05-.952-1.76-1.03-.76-.085-1.362-.13-1.838-.13-1.698 0-1.807.56-1.923 1.83-.08.88.222 1.812 1.407 2.083 1.815.416 1.984.41 3.394.6.326.046.597.08.794.103.32.006.492-.045.646-.127v16.272c-.008.064-.02.127-.02.193v2.595c0 .926.774 1.683 1.72 1.683l6.327.062c.946 0 1.72-.757 1.72-1.683v-2.594c0-.048 28.994-.025 28.994.023l.013 2.526c0 .718.468 1.33 1.118 1.57.19.07.39.113.603.113h1.26l.892-.017h4.157c.946 0 1.72-.757 1.72-1.683V32.16c0-.047-.007-.093-.014-.14-.003-.017-.005-13.32-.005-13.32v-3.004c.154.082.326.133.52.133.322-.03.593-.064.918-.108 1.41-.192 1.58-.186 3.396-.6.36-.084.632-.233.843-.418.086-.077.163-.16.23-.248z" opacity=".2"/></svg>