<svg width="330" height="150" xmlns="http://www.w3.org/2000/svg" preserveAspectRatio="xMidYMid meet" version="1.0">

 <g>
  <title>Layer 1</title>
  <path id="svg_2" d="m50.98182,36.00008c-10.8,2.8 -15.9,6.2 -19.3,12.9c-1.4,2.8 -2.5,5.8 -2.5,6.8c0,0.9 -0.7,3.4 -1.6,5.5c-1.7,3.9 -1.5,9.6 0.4,14.9c0.6,1.6 1.6,5 2.2,7.5c1.6,6 9.1,13.5 15.2,15c2.4,0.5 6,1.6 8.2,2.2c6.6,2.1 10.4,1.6 23.6,-3c6.9,-2.3 11.5,-7.9 14.5,-17.7c2.6,-8.6 3.1,-14.8 1.6,-18.7c-0.5,-1.3 -1.6,-5 -2.6,-8.3c-2.1,-7.2 -8.2,-13.8 -14.2,-15.4c-3.6,-0.9 -12,-2.9 -15.3,-3.6c-0.8,-0.2 -5.4,0.7 -10.2,1.9zm15,3c1.5,0.8 7.3,6.1 13,11.9c15.3,15.4 15.6,19.4 1.8,33.6c-13.4,13.8 -17.5,15.9 -25.3,13c-3.2,-1.2 -21.8,-19.1 -23.9,-23.1c-0.8,-1.5 -1.4,-4.8 -1.4,-7.3c0,-4.3 0.4,-5 9,-14.5c8.6,-9.4 12.6,-13 16,-14.3c2.8,-1 8.1,-0.7 10.8,0.7zm11,1.1c2,0.9 4.7,2.6 6,3.8c2.7,2.5 6.5,9.3 6,10.8c-0.2,0.5 -4.1,-2.9 -8.8,-7.6c-4.6,-4.7 -8.1,-8.5 -7.7,-8.5c0.4,0 2.4,0.7 4.5,1.5zm-30.8,1c-0.7,0.9 -4.4,4.3 -8.2,7.6c-5.6,5 -6.7,5.7 -5.8,3.5c1.6,-4.4 5.3,-8.7 9,-10.7c4.5,-2.3 6.8,-2.5 5,-0.4zm-6,48.1c6.6,6.6 7.9,8.3 5.6,7.4c-5,-1.8 -8.1,-4.1 -10.3,-7.3c-2,-2.9 -4.6,-8.7 -4,-8.7c0.1,0 4.1,3.8 8.7,8.6zm47.1,-2.9c-2.1,4.2 -7.1,8.6 -11.8,10.4c-2.1,0.8 -0.9,-0.9 5.1,-7c4.4,-4.4 8.2,-7.9 8.4,-7.7c0.2,0.2 -0.6,2.2 -1.7,4.3z"/>
  <path id="svg_3" d="m55.48182,56.00008c-4.3,2 -5.3,4.3 -5.3,12.6c0,6.2 0.3,7.4 2.5,9.5c4.2,4.3 16.9,3.1 17.5,-1.5c0.6,-3.7 0,-4.1 -2.6,-2.1c-2.9,2.3 -6.4,2.7 -9.5,1.1c-1.6,-0.9 -1.9,-2.2 -1.9,-7.3c0,-3.6 0.5,-6.8 1.2,-7.5c1.9,-1.9 7.6,-1.4 9.7,0.7c2.1,2.1 3.1,1.8 3.1,-0.9c0,-4.4 -8.9,-7.2 -14.7,-4.6z"/>
  <path id="svg_4" d="m141.38182,63.60909c0.3,11.2 0.5,12.8 2.1,13.1c1.5,0.3 1.7,-0.5 1.7,-6.1c0,-6.8 1.3,-9.2 4.7,-8.5c1.5,0.3 1.9,1.6 2.3,7.3c0.4,5.6 0.8,7 2.3,7.3c1.5,0.3 1.7,-0.6 1.7,-7.2c0,-6.9 -0.2,-7.7 -2.5,-9.2c-1.6,-1.1 -3.4,-1.4 -5.5,-0.9c-2.9,0.6 -3,0.6 -3,-3.3c0,-3.6 -1.1,-5.2 -3.6,-5.2c-0.3,0 -0.3,5.7 -0.2,12.7z"/>
  <path id="svg_5" d="m204.38182,63.60909c0.3,11.2 0.5,12.8 2.1,13.1c1.4,0.3 1.7,-0.4 1.7,-3.7c0,-2.3 0.4,-4.1 0.9,-4.1c1.4,0 4.2,3 5.2,5.7c0.5,1.3 1.7,2.3 2.9,2.3c1.1,0 2,-0.2 2,-0.5c0,-1.4 -3.4,-7.1 -4.8,-8.1c-1.4,-1 -1.3,-1.5 0.6,-3.9c3.7,-4.7 2.2,-7.9 -1.6,-3.4c-4.7,5.8 -4.7,5.8 -5,-1.1c-0.3,-6.1 -1.4,-9 -3.4,-9c-0.5,0 -0.7,5.6 -0.6,12.7z"/>
  <path id="svg_6" d="m121.48182,53.10909c-4.8,1.3 -6.3,4.2 -6.3,12.1c0,5.9 0.3,7.1 2.5,9.2c1.9,2 3.4,2.5 7.5,2.5c6.1,0 9,-1.3 9,-4.1c0,-1.9 -0.1,-1.9 -2.2,-0.5c-3.1,2.2 -9.1,2 -11.1,-0.2c-1.9,-2.1 -2.3,-11.1 -0.7,-14.3c1.3,-2.4 8.5,-2.6 11.8,-0.3c2,1.4 2.2,1.4 2.2,-0.4c0,-1.1 -0.6,-2.4 -1.2,-2.9c-2,-1.5 -7.9,-2.1 -11.5,-1.1z"/>
  <path id="svg_7" d="m267.18182,64.20909c0,10.6 1.4,12.9 7.2,12.5c2.5,-0.2 4.5,-1 5.2,-2c1.3,-2.1 0,-3.6 -1.6,-2c-0.7,0.7 -2.2,1.2 -3.5,1.2c-2.5,0 -3.7,-2.8 -3.1,-7.6c0.2,-2.5 0.8,-2.9 3.6,-3.2c4.1,-0.4 4.2,-2.2 0.2,-2.2c-2,0 -3.3,-0.6 -3.7,-1.8c-0.7,-1.7 -2.2,-3.2 -3.5,-3.2c-0.5,0 -0.8,3.7 -0.8,8.3z"/>
  <path id="svg_8" d="m166.18182,60.20909c-2.2,1.1 -2.5,2 -2.8,7.1c-0.4,7.4 1.3,9.6 7.3,9.6c4.2,0 6.5,-1.3 6.5,-3.7c0,-1.1 -0.5,-1.1 -2,-0.3c-3,1.6 -7.4,0.9 -7.8,-1.3c-0.3,-1.3 0.4,-1.7 3.2,-1.7c6.2,0 9,-6.2 4.4,-9.4c-2.7,-1.9 -5.4,-2 -8.8,-0.3zm6.5,4.2c0,1.4 -0.8,2.1 -2.7,2.3c-2.2,0.3 -2.8,-0.1 -2.8,-1.6c0,-2.5 1,-3.3 3.5,-3c1.2,0.2 2,1 2,2.3z"/>
  <path id="svg_9" d="m185.48182,61.50909c-2.2,2.2 -2.5,3.2 -2.1,7.6c0.6,6 2.4,7.8 7.9,7.8c3.9,0 7.4,-2.4 6.3,-4.2c-0.4,-0.6 -1,-0.6 -1.7,0.1c-1.5,1.5 -6,1.4 -7.5,-0.1c-1.7,-1.7 -1.5,-7.4 0.4,-9.2c1.9,-2 3.4,-2 6.2,0c2.1,1.4 2.2,1.4 2.2,-0.6c0,-1.3 -0.9,-2.4 -2.6,-3c-4.1,-1.6 -6.3,-1.2 -9.1,1.6z"/>
  <path id="svg_10" d="m226.98182,60.00909c-1,0.5 -1.8,2 -1.8,3.2c0,1.4 0.3,1.8 0.8,1c1.3,-2.1 6.6,-2.7 8.1,-0.9c1.1,1.3 0.9,1.7 -1.4,2.6c-1.4,0.5 -3.2,1 -3.9,1c-1.7,0 -4.6,3.3 -4.6,5.3c0,3.1 2.9,4.7 8.6,4.7l5.4,0l0,-7.4c0,-6.6 -0.3,-7.7 -2.2,-9c-2.6,-1.8 -6.5,-2 -9,-0.5zm8.2,11.4c0,2.2 -0.4,2.5 -3.5,2.5c-3.9,0 -4.8,-2.1 -1.7,-3.9c3.1,-1.9 5.2,-1.3 5.2,1.4z"/>
  <path id="svg_11" d="m245.18182,66.30909c0,9.3 1.3,10.7 9.4,10.5l5.6,-0.2l0,-8.2c0,-7.4 -0.2,-8.3 -2,-8.8c-1.9,-0.5 -2,0 -2,7l0,7.4l-3.2,-0.3l-3.3,-0.3l-0.3,-6.6c-0.2,-5.7 -0.6,-6.8 -2.2,-7.2c-1.9,-0.5 -2,0 -2,6.7z"/>
  <path id="svg_12" d="m288.18182,60.20909c-2.2,1.1 -2.5,2 -2.8,7.4c-0.4,7.5 1,9.3 7.4,9.3c6,0 8.4,-2.5 8.4,-8.8c0,-5.3 -0.5,-6.4 -3.7,-8.1c-2.8,-1.4 -6.2,-1.4 -9.3,0.2zm7.9,3.1c0.7,0.8 1.1,3.4 0.9,5.8c-0.3,4.2 -0.4,4.3 -3.8,4.3c-3.4,0 -3.5,-0.1 -3.8,-4.4c-0.2,-2.4 -0.1,-5 0.2,-5.7c0.7,-1.8 5,-1.8 6.5,0z"/>
  <path id="svg_13" d="m161.38182,92.60909c25.8,0.2 67.8,0.2 93.5,0c25.8,-0.1 4.7,-0.2 -46.7,-0.2c-51.4,0 -72.5,0.1 -46.8,0.2z"/>
 </g>
</svg>