<?xml version="1.0" standalone="no"?>
<!DOCTYPE svg PUBLIC "-//W3C//DTD SVG 20010904//EN"
 "http://www.w3.org/TR/2001/REC-SVG-20010904/DTD/svg10.dtd">
<svg version="1.0" xmlns="http://www.w3.org/2000/svg"
 width="330.000000pt" height="150.000000pt" viewBox="0 0 330.000000 150.000000"
 preserveAspectRatio="xMidYMid meet">

<g transform="translate(0.000000,150.000000) scale(0.100000,-0.100000)"
fill="#000000" stroke="none">
<path d="M488 1106 c-108 -28 -159 -62 -193 -129 -14 -28 -25 -58 -25 -68 0
-9 -7 -34 -16 -55 -17 -39 -15 -96 4 -149 6 -16 16 -50 22 -75 16 -60 91 -135
152 -150 24 -5 60 -16 82 -22 66 -21 104 -16 236 30 69 23 115 79 145 177 26
86 31 148 16 187 -5 13 -16 50 -26 83 -21 72 -82 138 -142 154 -36 9 -120 29
-153 36 -8 2 -54 -7 -102 -19z m150 -30 c15 -8 73 -61 130 -119 153 -154 156
-194 18 -336 -134 -138 -175 -159 -253 -130 -32 12 -218 191 -239 231 -8 15
-14 48 -14 73 0 43 4 50 90 145 86 94 126 130 160 143 28 10 81 7 108 -7z
m110 -11 c20 -9 47 -26 60 -38 27 -25 65 -93 60 -108 -2 -5 -41 29 -88 76 -46
47 -81 85 -77 85 4 0 24 -7 45 -15z m-308 -10 c-7 -9 -44 -43 -82 -76 -56 -50
-67 -57 -58 -35 16 44 53 87 90 107 45 23 68 25 50 4z m-60 -481 c66 -66 79
-83 56 -74 -50 18 -81 41 -103 73 -20 29 -46 87 -40 87 1 0 41 -38 87 -86z
m471 29 c-21 -42 -71 -86 -118 -104 -21 -8 -9 9 51 70 44 44 82 79 84 77 2 -2
-6 -22 -17 -43z"/>
<path d="M533 906 c-43 -20 -53 -43 -53 -126 0 -62 3 -74 25 -95 42 -43 169
-31 175 15 6 37 0 41 -26 21 -29 -23 -64 -27 -95 -11 -16 9 -19 22 -19 73 0
36 5 68 12 75 19 19 76 14 97 -7 21 -21 31 -18 31 9 0 44 -89 72 -147 46z"/>
<path d="M1392 893 c3 -112 5 -128 21 -131 15 -3 17 5 17 61 0 68 13 92 47 85
15 -3 19 -16 23 -73 4 -56 8 -70 23 -73 15 -3 17 6 17 72 0 69 -2 77 -25 92
-16 11 -34 14 -55 9 -29 -6 -30 -6 -30 33 0 36 -11 52 -36 52 -3 0 -3 -57 -2
-127z"/>
<path d="M2022 893 c3 -112 5 -128 21 -131 14 -3 17 4 17 37 0 23 4 41 9 41
14 0 42 -30 52 -57 5 -13 17 -23 29 -23 11 0 20 2 20 5 0 14 -34 71 -48 81
-14 10 -13 15 6 39 37 47 22 79 -16 34 -47 -58 -47 -58 -50 11 -3 61 -14 90
-34 90 -5 0 -7 -56 -6 -127z"/>
<path d="M1193 998 c-48 -13 -63 -42 -63 -121 0 -59 3 -71 25 -92 19 -20 34
-25 75 -25 61 0 90 13 90 41 0 19 -1 19 -22 5 -31 -22 -91 -20 -111 2 -19 21
-23 111 -7 143 13 24 85 26 118 3 20 -14 22 -14 22 4 0 11 -6 24 -12 29 -20
15 -79 21 -115 11z"/>
<path d="M2650 887 c0 -106 14 -129 72 -125 25 2 45 10 52 20 13 21 0 36 -16
20 -7 -7 -22 -12 -35 -12 -25 0 -37 28 -31 76 2 25 8 29 36 32 41 4 42 22 2
22 -20 0 -33 6 -37 18 -7 17 -22 32 -35 32 -5 0 -8 -37 -8 -83z"/>
<path d="M1640 927 c-22 -11 -25 -20 -28 -71 -4 -74 13 -96 73 -96 42 0 65 13
65 37 0 11 -5 11 -20 3 -30 -16 -74 -9 -78 13 -3 13 4 17 32 17 62 0 90 62 44
94 -27 19 -54 20 -88 3z m65 -42 c0 -14 -8 -21 -27 -23 -22 -3 -28 1 -28 16 0
25 10 33 35 30 12 -2 20 -10 20 -23z"/>
<path d="M1833 914 c-22 -22 -25 -32 -21 -76 6 -60 24 -78 79 -78 39 0 74 24
63 42 -4 6 -10 6 -17 -1 -15 -15 -60 -14 -75 1 -17 17 -15 74 4 92 19 20 34
20 62 0 21 -14 22 -14 22 6 0 13 -9 24 -26 30 -41 16 -63 12 -91 -16z"/>
<path d="M2248 929 c-10 -5 -18 -20 -18 -32 0 -14 3 -18 8 -10 13 21 66 27 81
9 11 -13 9 -17 -14 -26 -14 -5 -32 -10 -39 -10 -17 0 -46 -33 -46 -53 0 -31
29 -47 86 -47 l54 0 0 74 c0 66 -3 77 -22 90 -26 18 -65 20 -90 5z m82 -114
c0 -22 -4 -25 -35 -25 -39 0 -48 21 -17 39 31 19 52 13 52 -14z"/>
<path d="M2430 866 c0 -93 13 -107 94 -105 l56 2 0 82 c0 74 -2 83 -20 88 -19
5 -20 0 -20 -70 l0 -74 -32 3 -33 3 -3 66 c-2 57 -6 68 -22 72 -19 5 -20 0
-20 -67z"/>
<path d="M2860 927 c-22 -11 -25 -20 -28 -74 -4 -75 10 -93 74 -93 60 0 84 25
84 88 0 53 -5 64 -37 81 -28 14 -62 14 -93 -2z m79 -31 c7 -8 11 -34 9 -58 -3
-42 -4 -43 -38 -43 -34 0 -35 1 -38 44 -2 24 -1 50 2 57 7 18 50 18 65 0z"/>
<path d="M1592 603 c258 -2 678 -2 935 0 258 1 47 2 -467 2 -514 0 -725 -1
-468 -2z"/>
</g>
</svg>
